name rise44.8762peak52.3436fall86.788.mot
datacolumns 19
datarows 26
range 18.61326400000000 18.65492900000000
endheader
time	ground_force1_vx	ground_force1_vy	ground_force1_vz	ground_force1_px	ground_force1_py	ground_force1_pz	ground_force2_vx	ground_force2_vy	ground_force2_vz	ground_force2_px	ground_force2_py	ground_force2_pz	ground_torque1_x	ground_torque1_y	ground_torque1_z	ground_torque2_x	ground_torque2_y	ground_torque2_z	
18.61326400000000	-46.21470500000000	767.65290800000002	54.59233900000000	0.08899400000000	0.00000000000000	0.10955600000000	-6.82502100000000	59.51857700000000	8.15708500000000	0.34186700000000	0.00000000000000	-0.09875600000000	0.00000000000000	19.93552200000000	0.00000000000000	0.00000000000000	4.72590100000000	0.00000000000000	
18.61493100000000	-46.48227500000000	765.42674399999999	54.34416400000000	0.08843600000000	0.00000000000000	0.10944600000000	-7.03394600000000	66.18598600000000	8.67706000000000	0.34534700000000	0.00000000000000	-0.09917900000000	0.00000000000000	19.83246600000000	0.00000000000000	0.00000000000000	5.10545600000000	0.00000000000000	
18.61659800000000	-46.76196900000000	763.12746200000004	54.07817500000000	0.08788300000000	0.00000000000000	0.10933300000000	-7.11438500000000	72.71956100000000	9.09635200000000	0.34854000000000	0.00000000000000	-0.09956800000000	0.00000000000000	19.72975900000000	0.00000000000000	0.00000000000000	5.43744500000000	0.00000000000000	
18.61826400000000	-47.05416100000000	760.75386800000001	53.79421400000000	0.08733600000000	0.00000000000000	0.10921800000000	-7.06800800000000	79.09849100000000	9.41423700000000	0.35148200000000	0.00000000000000	-0.09993100000000	0.00000000000000	19.62754500000000	0.00000000000000	0.00000000000000	5.72015600000000	0.00000000000000	
18.61992900000000	-47.35917200000000	758.30468299999995	53.49214900000000	0.08679400000000	0.00000000000000	0.10909900000000	-6.90092100000000	85.32335800000000	9.63429600000000	0.35420200000000	0.00000000000000	-0.10026900000000	0.00000000000000	19.52596000000000	0.00000000000000	0.00000000000000	5.95435800000000	0.00000000000000	
18.62159000000000	-47.67727300000000	755.77853600000003	53.17187500000000	0.08625700000000	0.00000000000000	0.10897700000000	-6.62257500000000	91.41261299999999	9.76347600000000	0.35672400000000	0.00000000000000	-0.10058700000000	0.00000000000000	19.42513300000000	0.00000000000000	0.00000000000000	6.14283100000000	0.00000000000000	
18.62325900000000	-48.00867800000000	753.17397200000005	52.83331000000000	0.08572400000000	0.00000000000000	0.10885200000000	-6.24459800000000	97.39819199999999	9.81102800000000	0.35906900000000	0.00000000000000	-0.10088700000000	0.00000000000000	19.32518500000000	0.00000000000000	0.00000000000000	6.28980700000000	0.00000000000000	
18.62493000000000	-48.35354100000000	750.48945100000003	52.47640300000000	0.08519700000000	0.00000000000000	0.10872400000000	-5.77964900000000	103.32079500000000	9.78745400000000	0.36125400000000	0.00000000000000	-0.10117100000000	0.00000000000000	19.22622800000000	0.00000000000000	0.00000000000000	6.40040200000000	0.00000000000000	
18.62659400000000	-48.71195600000000	747.72334799999999	52.10112900000000	0.08467400000000	0.00000000000000	0.10859300000000	-5.24039000000000	109.22525700000000	9.70351900000000	0.36329400000000	0.00000000000000	-0.10144200000000	0.00000000000000	19.12836400000000	0.00000000000000	0.00000000000000	6.48005600000000	0.00000000000000	
18.62826000000000	-49.08395200000000	744.87396200000001	51.70749100000000	0.08415500000000	0.00000000000000	0.10845900000000	-4.63862700000000	115.15638400000000	9.56942800000000	0.36520100000000	0.00000000000000	-0.10170100000000	0.00000000000000	19.03168600000000	0.00000000000000	0.00000000000000	6.53406300000000	0.00000000000000	
18.62992300000000	-49.46949500000000	741.93951400000003	51.29552200000000	0.08363900000000	0.00000000000000	0.10832300000000	-3.98467500000000	121.15548300000000	9.39417700000000	0.36698800000000	0.00000000000000	-0.10195000000000	0.00000000000000	18.93627600000000	0.00000000000000	0.00000000000000	6.56717700000000	0.00000000000000	
18.63159900000000	-49.86847900000000	738.91815399999996	50.86528400000000	0.08312700000000	0.00000000000000	0.10818300000000	-3.28694200000000	127.25774699999999	9.18511500000000	0.36866300000000	0.00000000000000	-0.10218900000000	0.00000000000000	18.84220400000000	0.00000000000000	0.00000000000000	6.58334200000000	0.00000000000000	
18.63325800000000	-50.28073000000000	735.80796099999998	50.41686900000000	0.08261800000000	0.00000000000000	0.10804100000000	-2.55173500000000	133.49053000000001	8.94770400000000	0.37023400000000	0.00000000000000	-0.10242000000000	0.00000000000000	18.74953100000000	0.00000000000000	0.00000000000000	6.58552000000000	0.00000000000000	
18.63492500000000	-50.70600300000000	732.60695699999997	49.95039700000000	0.08211200000000	0.00000000000000	0.10789700000000	-1.78325300000000	139.87250299999999	8.68546900000000	0.37171000000000	0.00000000000000	-0.10264400000000	0.00000000000000	18.65830200000000	0.00000000000000	0.00000000000000	6.57563900000000	0.00000000000000	
18.63659400000000	-51.14397800000000	729.31310099999996	49.46602200000000	0.08160800000000	0.00000000000000	0.10775000000000	-0.98375500000000	146.41357300000001	8.40009700000000	0.37309600000000	0.00000000000000	-0.10286100000000	0.00000000000000	18.56855400000000	0.00000000000000	0.00000000000000	6.55461600000000	0.00000000000000	
18.63826500000000	-51.59426100000000	725.92430500000000	48.96392700000000	0.08110700000000	0.00000000000000	0.10760000000000	-0.15382700000000	153.11544499999999	8.09165900000000	0.37439800000000	0.00000000000000	-0.10307200000000	0.00000000000000	18.48030800000000	0.00000000000000	0.00000000000000	6.52246400000000	0.00000000000000	
18.63992400000000	-52.05638100000000	722.43843500000003	48.44432400000000	0.08060700000000	0.00000000000000	0.10744800000000	0.70726100000000	159.97267199999999	7.75891700000000	0.37562000000000	0.00000000000000	-0.10327800000000	0.00000000000000	18.39357400000000	0.00000000000000	0.00000000000000	6.47844500000000	0.00000000000000	
18.64159500000000	-52.52979300000000	718.85331499999995	47.90745900000000	0.08010800000000	0.00000000000000	0.10729400000000	1.60116500000000	166.97400600000000	7.39966600000000	0.37676800000000	0.00000000000000	-0.10347800000000	0.00000000000000	18.30834800000000	0.00000000000000	0.00000000000000	6.42124900000000	0.00000000000000	
18.64326500000000	-53.01387200000000	715.16674300000000	47.35360800000000	0.07961000000000	0.00000000000000	0.10713800000000	2.53008100000000	174.10391500000000	7.01109600000000	0.37784500000000	0.00000000000000	-0.10367400000000	0.00000000000000	18.22461100000000	0.00000000000000	0.00000000000000	6.34919900000000	0.00000000000000	
18.64492400000000	-53.50791700000000	711.37648899999999	46.78307800000000	0.07911200000000	0.00000000000000	0.10698000000000	3.49638400000000	181.34410900000000	6.59012900000000	0.37885300000000	0.00000000000000	-0.10386700000000	0.00000000000000	18.14233200000000	0.00000000000000	0.00000000000000	6.26042900000000	0.00000000000000	
18.64659400000000	-54.01114700000000	707.48030600000004	46.19620800000000	0.07861400000000	0.00000000000000	0.10682000000000	4.50231300000000	188.67496700000001	6.13372100000000	0.37979600000000	0.00000000000000	-0.10405500000000	0.00000000000000	18.06146600000000	0.00000000000000	0.00000000000000	6.15306500000000	0.00000000000000	
18.64826200000000	-54.52270600000000	703.47594100000003	45.59336500000000	0.07811600000000	0.00000000000000	0.10665800000000	5.54973100000000	196.07678600000000	5.63910600000000	0.38067700000000	0.00000000000000	-0.10424000000000	0.00000000000000	17.98195300000000	0.00000000000000	0.00000000000000	6.02536300000000	0.00000000000000	
18.64992700000000	-55.04165700000000	699.36113999999998	44.97494900000000	0.07761700000000	0.00000000000000	0.10649500000000	6.63993800000000	203.53077800000000	5.10398500000000	0.38149700000000	0.00000000000000	-0.10442200000000	0.00000000000000	17.90372000000000	0.00000000000000	0.00000000000000	5.87582300000000	0.00000000000000	
18.65159300000000	-55.56699100000000	695.13365499999998	44.34139000000000	0.07711600000000	0.00000000000000	0.10633000000000	7.77357000000000	211.01981900000001	4.52664100000000	0.38225900000000	0.00000000000000	-0.10460000000000	0.00000000000000	17.82668100000000	0.00000000000000	0.00000000000000	5.70325900000000	0.00000000000000	
18.65326300000000	-56.09761900000000	690.79125999999997	43.69314800000000	0.07661300000000	0.00000000000000	0.10616300000000	8.95055300000000	218.52891600000001	3.90600900000000	0.38296400000000	0.00000000000000	-0.10477600000000	0.00000000000000	17.75073300000000	0.00000000000000	0.00000000000000	5.50685000000000	0.00000000000000	
18.65492900000000	-56.63238000000000	686.33175400000005	43.03071100000000	0.07610800000000	0.00000000000000	0.10599600000000	10.17010800000000	226.04543500000000	3.24167700000000	0.38361400000000	0.00000000000000	-0.10494900000000	0.00000000000000	17.67576400000000	0.00000000000000	0.00000000000000	5.28614300000000	0.00000000000000	
